<svg xmlns="http://www.w3.org/2000/svg" xmlns:xlink="http://www.w3.org/1999/xlink" width="75" zoomAndPan="magnify" viewBox="0 0 375 374.999991" height="75" preserveAspectRatio="xMidYMid meet" version="1.0"><defs><g/></defs><rect x="-37.5" width="450" fill="#ffffff" y="-37.499999" height="449.999989" fill-opacity="1"/><rect x="-37.5" width="450" fill="#000000" y="-37.499999" height="449.999989" fill-opacity="1"/><g fill="#ffffff" fill-opacity="1"><g transform="translate(5.761171, 259.620708)"><g><path d="M 38.0625 -9.359375 C 38.0625 -6.238281 37.128906 -4.054688 35.566406 -2.496094 C 33.695312 -0.625 31.511719 0 28.703125 0 L 20.589844 0 C 17.472656 0 15.289062 -0.625 13.726562 -2.496094 C 11.855469 -4.054688 11.230469 -6.238281 11.230469 -9.359375 L 11.230469 -167.539062 C 11.230469 -170.347656 11.855469 -172.53125 13.726562 -174.402344 C 15.289062 -175.964844 17.472656 -176.898438 20.589844 -176.898438 L 28.703125 -176.898438 C 31.511719 -176.898438 33.695312 -175.964844 35.566406 -174.402344 C 37.128906 -172.53125 38.0625 -170.347656 38.0625 -167.539062 Z M 38.0625 -9.359375 "/></g></g></g><g fill="#ffffff" fill-opacity="1"><g transform="translate(26.664182, 259.620708)"><g><path d="M 62.085938 -97.652344 L 64.894531 -94.847656 C 68.015625 -91.726562 71.445312 -88.292969 74.878906 -84.550781 C 78.308594 -80.804688 81.429688 -76.75 84.238281 -72.382812 C 87.046875 -68.015625 89.542969 -63.023438 91.414062 -58.03125 C 93.285156 -53.039062 94.222656 -47.421875 94.222656 -41.183594 C 94.222656 -35.566406 92.972656 -29.953125 90.789062 -24.960938 C 88.605469 -19.96875 85.796875 -15.601562 82.054688 -11.855469 C 78.308594 -8.113281 73.628906 -4.992188 68.636719 -2.808594 C 63.644531 -0.625 58.34375 0.3125 52.726562 0.3125 C 46.488281 0.3125 41.496094 -0.625 37.128906 -2.808594 C 33.695312 -4.054688 30.886719 -4.992188 28.703125 -6.238281 C 26.207031 -7.488281 24.335938 -8.734375 22.777344 -10.296875 C 21.214844 -11.855469 19.65625 -13.726562 18.40625 -16.222656 C 17.160156 -18.40625 15.601562 -21.214844 14.351562 -24.648438 C 13.105469 -27.144531 12.480469 -29.640625 11.855469 -32.136719 C 11.230469 -34.632812 11.230469 -37.4375 11.230469 -40.246094 L 11.230469 -44.613281 C 11.230469 -47.421875 12.480469 -48.984375 15.601562 -48.984375 L 33.695312 -48.984375 C 36.503906 -48.984375 38.0625 -47.421875 38.0625 -44.613281 L 38.0625 -40.246094 C 38.0625 -36.503906 39.3125 -33.070312 42.117188 -30.574219 C 44.925781 -27.765625 48.359375 -26.519531 52.414062 -26.519531 C 56.46875 -26.519531 59.902344 -27.765625 62.710938 -30.574219 C 65.519531 -33.382812 67.078125 -36.816406 67.078125 -41.183594 C 67.078125 -43.054688 66.765625 -45.238281 66.140625 -47.734375 C 65.519531 -49.917969 64.269531 -52.414062 62.710938 -55.222656 C 60.839844 -58.03125 58.34375 -61.460938 55.222656 -65.207031 C 52.101562 -68.949219 48.046875 -73.316406 43.054688 -78.308594 L 41.808594 -79.871094 C 40.558594 -80.492188 40.558594 -81.429688 41.808594 -82.679688 C 41.183594 -82.054688 40.871094 -82.054688 40.246094 -82.054688 C 39.933594 -82.054688 39.3125 -82.054688 38.6875 -82.679688 C 35.566406 -85.796875 32.136719 -88.917969 29.015625 -92.660156 C 25.582031 -96.09375 22.464844 -99.835938 19.96875 -104.207031 C 17.160156 -108.574219 14.976562 -113.253906 13.414062 -118.246094 C 11.542969 -123.238281 10.917969 -128.539062 10.917969 -134.46875 C 10.917969 -140.085938 11.855469 -145.386719 14.039062 -150.378906 C 16.222656 -155.371094 19.34375 -160.050781 23.085938 -163.796875 C 26.832031 -167.539062 31.199219 -170.347656 36.191406 -172.53125 C 41.183594 -174.714844 46.800781 -175.964844 52.414062 -175.964844 C 58.03125 -175.964844 63.335938 -175.027344 68.015625 -173.15625 C 71.132812 -171.90625 73.941406 -170.660156 76.4375 -169.410156 C 78.621094 -168.164062 80.492188 -166.605469 82.054688 -165.042969 C 83.613281 -163.484375 85.175781 -161.613281 86.421875 -159.429688 C 87.667969 -156.933594 89.230469 -154.125 90.789062 -151.003906 C 92.660156 -146.636719 93.910156 -141.332031 93.910156 -135.40625 L 93.910156 -131.347656 C 93.910156 -128.230469 92.351562 -126.980469 89.855469 -126.980469 L 71.445312 -126.980469 C 68.328125 -126.980469 67.078125 -128.230469 67.078125 -131.347656 L 67.078125 -135.714844 C 67.078125 -139.460938 65.519531 -142.582031 62.710938 -145.386719 C 59.902344 -147.882812 56.46875 -149.445312 52.726562 -149.445312 C 48.359375 -149.445312 44.925781 -147.882812 42.117188 -145.078125 C 39.3125 -142.269531 38.0625 -138.835938 38.0625 -134.78125 C 38.0625 -132.597656 38.375 -130.414062 39 -128.230469 C 39.621094 -125.734375 40.558594 -123.238281 42.429688 -120.429688 C 43.992188 -117.621094 46.488281 -114.5 49.605469 -110.757812 C 52.726562 -107.011719 57.09375 -102.644531 62.085938 -97.652344 Z M 62.085938 -97.652344 "/></g></g></g><g fill="#ffffff" fill-opacity="1"><g transform="translate(103.725704, 259.620708)"><g><path d="M 67.390625 -41.496094 L 67.390625 -167.226562 C 67.390625 -170.035156 68.015625 -172.21875 69.886719 -174.09375 C 71.445312 -175.652344 73.628906 -176.585938 76.75 -176.585938 L 84.863281 -176.585938 C 87.667969 -176.585938 89.855469 -175.652344 91.726562 -174.09375 C 93.285156 -172.21875 94.222656 -170.035156 94.222656 -167.226562 L 94.222656 -41.496094 C 94.222656 -35.878906 92.972656 -30.261719 90.789062 -25.269531 C 88.605469 -20.28125 85.796875 -15.910156 82.054688 -12.167969 C 78.308594 -8.421875 73.628906 -5.304688 68.636719 -3.121094 C 63.644531 -0.9375 58.34375 0 52.726562 0 C 47.109375 0 41.496094 -0.9375 36.503906 -3.121094 C 31.511719 -5.304688 27.144531 -8.421875 23.398438 -12.167969 C 19.65625 -15.910156 16.535156 -20.28125 14.351562 -25.269531 C 12.167969 -30.261719 11.230469 -35.878906 11.230469 -41.496094 L 11.230469 -167.226562 C 11.230469 -170.035156 11.855469 -172.21875 13.726562 -174.09375 C 15.289062 -175.652344 17.472656 -176.585938 20.589844 -176.585938 L 28.703125 -176.585938 C 31.511719 -176.585938 33.695312 -175.652344 35.566406 -174.09375 C 37.128906 -172.21875 38.0625 -170.035156 38.0625 -167.226562 L 38.0625 -41.496094 C 38.0625 -37.128906 39.3125 -33.695312 42.117188 -30.886719 C 44.925781 -28.078125 48.359375 -26.832031 52.726562 -26.832031 C 56.78125 -26.832031 60.214844 -28.078125 63.023438 -30.886719 C 65.832031 -33.695312 67.390625 -37.128906 67.390625 -41.496094 Z M 67.390625 -41.496094 "/></g></g></g><g fill="#ffffff" fill-opacity="1"><g transform="translate(180.787226, 259.620708)"><g><path d="M 48.046875 -150.070312 L 42.429688 -150.070312 C 41.183594 -150.070312 40.246094 -149.757812 39.621094 -149.132812 C 39 -148.507812 38.375 -146.949219 38.0625 -145.078125 C 37.4375 -142.890625 37.128906 -139.773438 37.128906 -136.027344 C 37.128906 -131.972656 37.128906 -126.667969 37.128906 -119.804688 C 37.128906 -112.941406 37.128906 -107.324219 37.128906 -103.582031 C 37.128906 -99.527344 37.4375 -96.40625 38.0625 -94.535156 C 38.375 -92.351562 39 -91.101562 39.621094 -90.476562 C 40.246094 -89.855469 41.496094 -89.542969 42.742188 -89.542969 L 48.046875 -89.542969 C 52.726562 -89.542969 56.78125 -91.101562 60.527344 -94.847656 C 63.957031 -98.277344 65.832031 -102.332031 65.832031 -107.324219 L 65.832031 -132.285156 C 65.832031 -136.964844 63.957031 -141.019531 60.527344 -144.765625 C 56.78125 -148.195312 52.726562 -150.070312 48.046875 -150.070312 Z M 93.285156 -131.972656 L 93.285156 -107.011719 C 93.285156 -92.039062 87.359375 -79.871094 75.503906 -71.132812 C 74.566406 -70.511719 73.941406 -69.886719 73.941406 -69.261719 C 73.628906 -68.328125 73.628906 -66.765625 74.253906 -64.894531 C 74.878906 -62.710938 75.8125 -59.589844 77.375 -55.847656 C 78.621094 -52.101562 80.804688 -47.109375 83.300781 -40.871094 C 85.796875 -34.632812 87.980469 -29.328125 89.855469 -25.269531 C 91.726562 -21.214844 92.972656 -17.785156 94.222656 -15.289062 C 95.15625 -12.792969 95.78125 -10.609375 95.78125 -8.734375 C 95.78125 -6.863281 95.46875 -5.304688 94.222656 -3.433594 C 92.351562 -0.9375 89.542969 0 85.796875 0 L 77.0625 0 C 75.191406 0 73.316406 -0.3125 72.070312 -1.558594 C 70.824219 -2.183594 69.886719 -2.808594 69.261719 -4.054688 C 68.636719 -5.304688 67.703125 -6.863281 66.765625 -9.359375 C 65.832031 -11.542969 64.582031 -14.664062 63.023438 -18.71875 C 61.460938 -22.464844 59.589844 -27.765625 57.09375 -34.007812 C 54.597656 -40.246094 52.414062 -45.550781 50.855469 -49.292969 C 49.292969 -53.039062 48.046875 -55.847656 47.109375 -57.71875 C 45.863281 -59.589844 44.925781 -60.839844 44.304688 -61.460938 C 43.679688 -62.085938 42.742188 -62.398438 41.808594 -62.398438 C 40.871094 -62.398438 40.246094 -62.085938 39.621094 -61.460938 C 39 -60.839844 38.375 -59.902344 38.375 -58.03125 C 38.0625 -56.160156 37.75 -53.664062 37.75 -50.230469 C 37.75 -46.488281 37.75 -41.808594 37.75 -35.878906 L 37.75 -9.359375 C 37.75 -6.238281 36.816406 -4.054688 35.253906 -2.496094 C 33.382812 -0.625 31.199219 0 28.390625 0 L 20.28125 0 C 17.160156 0 14.976562 -0.625 13.414062 -2.496094 C 11.542969 -4.054688 10.917969 -6.238281 10.917969 -9.359375 L 10.917969 -167.226562 C 10.917969 -170.035156 11.542969 -172.21875 13.414062 -174.09375 C 14.976562 -175.652344 17.160156 -176.585938 20.28125 -176.585938 L 48.671875 -176.585938 C 54.910156 -176.585938 60.527344 -175.339844 66.140625 -173.15625 C 71.445312 -170.660156 76.125 -167.539062 80.183594 -163.484375 C 84.238281 -159.429688 87.359375 -154.75 89.855469 -149.445312 C 92.039062 -143.828125 93.285156 -138.210938 93.285156 -131.972656 Z M 93.285156 -131.972656 "/></g></g></g><g fill="#ffffff" fill-opacity="1"><g transform="translate(263.776627, 259.620708)"><g><path d="M 67.390625 -41.496094 L 67.390625 -167.226562 C 67.390625 -170.035156 68.015625 -172.21875 69.886719 -174.09375 C 71.445312 -175.652344 73.628906 -176.585938 76.75 -176.585938 L 84.863281 -176.585938 C 87.667969 -176.585938 89.855469 -175.652344 91.726562 -174.09375 C 93.285156 -172.21875 94.222656 -170.035156 94.222656 -167.226562 L 94.222656 -41.496094 C 94.222656 -35.878906 92.972656 -30.261719 90.789062 -25.269531 C 88.605469 -20.28125 85.796875 -15.910156 82.054688 -12.167969 C 78.308594 -8.421875 73.628906 -5.304688 68.636719 -3.121094 C 63.644531 -0.9375 58.34375 0 52.726562 0 C 47.109375 0 41.496094 -0.9375 36.503906 -3.121094 C 31.511719 -5.304688 27.144531 -8.421875 23.398438 -12.167969 C 19.65625 -15.910156 16.535156 -20.28125 14.351562 -25.269531 C 12.167969 -30.261719 11.230469 -35.878906 11.230469 -41.496094 L 11.230469 -167.226562 C 11.230469 -170.035156 11.855469 -172.21875 13.726562 -174.09375 C 15.289062 -175.652344 17.472656 -176.585938 20.589844 -176.585938 L 28.703125 -176.585938 C 31.511719 -176.585938 33.695312 -175.652344 35.566406 -174.09375 C 37.128906 -172.21875 38.0625 -170.035156 38.0625 -167.226562 L 38.0625 -41.496094 C 38.0625 -37.128906 39.3125 -33.695312 42.117188 -30.886719 C 44.925781 -28.078125 48.359375 -26.832031 52.726562 -26.832031 C 56.78125 -26.832031 60.214844 -28.078125 63.023438 -30.886719 C 65.832031 -33.695312 67.390625 -37.128906 67.390625 -41.496094 Z M 67.390625 -41.496094 "/></g></g></g></svg>