<svg xmlns="http://www.w3.org/2000/svg" xmlns:xlink="http://www.w3.org/1999/xlink"
 width="50" zoomAndPan="magnify" viewBox="0 0 375 374.999991" height="50" 
 preserveAspectRatio="xMidYMid meet" version="1.0">
 <defs><g/></defs>
 <rect x="-37.5" width="450" fill="#ffffff" y="-37.499999" height="449.999989" fill-opacity="1"/><rect x="-37.5" width="450" fill="#000000" y="-37.499999" height="449.999989" fill-opacity="1"/><g fill="#ffffff" fill-opacity="1">
 <g transform="translate(95.74869, 191.814026)"><g><path d="M 1.308594 -53.859375 C 1.492188 -52.925781 2.800781 -52.179688 3.640625 -51.898438 C 5.039062 -51.339844 6.441406 -51.152344 7.933594 -51.152344 C 9.707031 -51.152344 11.761719 -51.621094 12.882812 -52.925781 C 14.65625 -53.300781 16.429688 -54.140625 17.828125 -55.167969 C 18.574219 -55.726562 19.230469 -56.660156 18.855469 -57.6875 C 17.921875 -60.113281 16.054688 -61.515625 13.535156 -62.167969 C 10.640625 -62.914062 7.746094 -61.792969 5.320312 -60.113281 C 5.132812 -60.019531 4.949219 -59.835938 4.761719 -59.648438 C 3.828125 -58.992188 3.082031 -58.246094 2.425781 -57.3125 C 1.773438 -56.378906 0.933594 -55.074219 1.308594 -53.859375 Z M 7.5625 -51.621094 C 6.441406 -51.714844 5.414062 -51.898438 4.386719 -52.273438 C 3.734375 -52.460938 3.171875 -52.832031 2.613281 -53.300781 C 1.867188 -53.953125 1.960938 -54.605469 2.332031 -55.445312 C 2.707031 -56.101562 3.082031 -56.660156 3.546875 -57.21875 C 2.613281 -55.074219 3.640625 -52.925781 6.347656 -52.367188 C 8.496094 -51.992188 9.707031 -52.179688 10.828125 -52.460938 C 10.921875 -52.460938 10.269531 -51.621094 7.5625 -51.621094 Z M 17.269531 -4.949219 C 17.457031 -4.015625 18.949219 -4.105469 18.855469 -5.039062 C 17.082031 -18.296875 16.335938 -31.550781 16.707031 -44.898438 C 16.707031 -44.992188 16.054688 -44.898438 16.054688 -44.710938 C 15.683594 -38.085938 15.683594 -28.285156 15.960938 -21.65625 C 15.773438 -21.65625 15.496094 -24.921875 15.308594 -24.828125 C 15.214844 -25.667969 15.121094 -26.511719 15.121094 -27.164062 C 15.027344 -30.617188 14.84375 -34.070312 14.84375 -37.429688 C 14.84375 -40.886719 15.027344 -44.246094 15.027344 -47.699219 C 14.933594 -48.539062 14.1875 -48.914062 13.535156 -48.820312 C 12.042969 -52.554688 7.28125 -49.097656 5.320312 -47.792969 C 5.039062 -47.511719 4.761719 -47.234375 4.574219 -46.859375 C 3.453125 -45.738281 2.894531 -43.964844 2.613281 -42.191406 C 2.242188 -38.832031 2.332031 -35.378906 2.332031 -32.015625 C 2.242188 -25.015625 2.707031 -18.109375 3.546875 -11.203125 C 3.921875 -8.585938 4.015625 -5.789062 5.972656 -3.921875 C 6.441406 -3.546875 6.90625 -3.265625 7.375 -3.082031 L 7.5625 -2.800781 C 9.335938 -1.027344 12.136719 -0.464844 14.375 -1.585938 C 15.214844 -1.960938 15.402344 -2.707031 15.308594 -3.359375 C 16.054688 -3.640625 16.800781 -4.199219 17.269531 -4.949219 Z M 6.90625 -43.03125 C 6.90625 -43.21875 7.28125 -43.777344 7.5625 -43.964844 L 7.652344 -43.964844 C 6.628906 -40.976562 6.441406 -37.523438 6.441406 -34.351562 C 6.347656 -30.152344 6.441406 -25.949219 6.441406 -21.75 L 6.160156 -21.75 C 5.878906 -23.988281 5.601562 -26.230469 5.414062 -28.46875 C 5.414062 -28.5625 5.414062 -28.5625 5.414062 -28.65625 L 5.414062 -29.589844 C 5.601562 -33.882812 5.507812 -38.832031 6.90625 -43.03125 Z M 6.90625 -43.03125 "/></g></g></g><g fill="#ffffff" fill-opacity="1"><g transform="translate(106.855244, 191.814026)"><g><path d="M 44.710938 -33.882812 C 44.617188 -36.125 44.617188 -38.363281 44.710938 -40.699219 C 45.085938 -45.085938 46.019531 -49.660156 45.460938 -54.046875 C 45.179688 -56.566406 43.59375 -58.621094 40.886719 -58.621094 C 38.457031 -58.621094 36.3125 -56.566406 36.3125 -54.046875 C 36.40625 -52.460938 36.40625 -50.871094 36.40625 -49.285156 L 35.9375 -49.753906 C 34.070312 -51.433594 32.015625 -52.832031 29.964844 -54.140625 C 25.578125 -57.035156 21.003906 -59.085938 15.960938 -60.582031 C 15.402344 -60.769531 14.933594 -60.769531 14.5625 -60.675781 C 12.601562 -61.328125 10.546875 -61.886719 8.496094 -62.074219 C 5.320312 -62.355469 2.613281 -60.394531 1.867188 -57.3125 C 1.121094 -54.234375 2.800781 -51.527344 4.480469 -49.191406 C 7.933594 -44.710938 11.949219 -40.792969 16.335938 -37.246094 L 17.734375 -36.125 C 19.042969 -34.816406 20.347656 -33.511719 21.5625 -32.109375 C 24.738281 -28.84375 27.722656 -25.484375 30.617188 -22.03125 C 31.550781 -20.910156 32.484375 -19.789062 33.324219 -18.667969 C 33.511719 -18.109375 33.789062 -17.640625 33.976562 -17.175781 C 34.351562 -16.429688 35.191406 -14.65625 34.722656 -13.628906 C 34.722656 -13.347656 34.722656 -13.066406 34.445312 -12.789062 C 33.699219 -11.667969 31.832031 -11.480469 30.617188 -11.386719 C 28.5625 -11.203125 26.601562 -11.203125 24.644531 -11.386719 C 23.523438 -11.480469 22.402344 -11.667969 21.28125 -12.042969 C 20.164062 -12.882812 19.136719 -13.910156 18.203125 -14.84375 C 16.523438 -16.617188 15.402344 -18.949219 14.5625 -21.1875 C 12.414062 -27.351562 12.136719 -33.976562 10.175781 -40.136719 C 9.429688 -42.378906 7.5625 -43.21875 5.320312 -42.9375 C 3.453125 -42.660156 2.054688 -40.886719 1.679688 -39.203125 C 1.121094 -36.496094 1.679688 -33.605469 2.054688 -30.992188 C 2.425781 -28.003906 2.800781 -25.015625 3.546875 -22.121094 C 4.949219 -16.988281 5.972656 -11.761719 6.535156 -6.535156 C 6.722656 -5.601562 7 -4.761719 7.5625 -4.105469 C 7.839844 -2.425781 8.773438 -0.839844 9.800781 0.1875 C 10.734375 1.121094 12.226562 1.121094 13.160156 0.1875 C 14.375 -0.839844 15.027344 -2.332031 15.402344 -3.921875 C 17.175781 -2.800781 19.136719 -1.960938 21.1875 -1.492188 C 24.175781 -0.652344 27.722656 -0.28125 30.898438 -0.746094 L 31.175781 -0.746094 C 37.058594 -1.027344 43.40625 -5.414062 43.59375 -11.480469 C 43.964844 -13.910156 43.40625 -16.429688 42.378906 -18.761719 C 41.820312 -21.28125 40.511719 -23.617188 38.832031 -25.761719 C 36.40625 -28.84375 33.605469 -31.738281 30.898438 -34.632812 C 28.097656 -37.710938 25.109375 -40.699219 22.121094 -43.59375 L 18.296875 -47.234375 C 20.722656 -46.671875 23.242188 -45.832031 25.578125 -44.804688 C 30.058594 -42.753906 34.164062 -39.859375 36.871094 -35.84375 C 36.964844 -35.84375 36.964844 -35.75 37.058594 -35.75 C 37.617188 -31.363281 39.203125 -25.203125 43.777344 -26.324219 C 45.085938 -26.695312 45.832031 -28.097656 45.460938 -29.308594 C 45.179688 -30.898438 44.804688 -32.296875 44.710938 -33.882812 Z M 44.710938 -33.882812 "/></g></g></g><g fill="#ffffff" fill-opacity="1"><g transform="translate(145.963737, 191.814026)"><g><path d="M 44.992188 -18.015625 C 47.140625 -25.484375 47.511719 -33.324219 47.140625 -41.070312 L 47.140625 -44.804688 C 47.140625 -47.046875 46.765625 -49.285156 46.578125 -51.527344 C 46.300781 -54.980469 45.925781 -59.460938 41.726562 -59.925781 C 40.699219 -60.019531 39.859375 -58.992188 39.859375 -58.0625 L 39.859375 -57.128906 C 37.523438 -58.433594 34.164062 -56.566406 34.257812 -53.765625 C 34.351562 -45.367188 34.445312 -37.058594 33.882812 -28.75 C 33.699219 -25.578125 33.882812 -19.695312 31.738281 -16.523438 C 30.429688 -15.402344 28.84375 -14.65625 27.070312 -14.28125 C 25.390625 -14.375 23.988281 -15.121094 22.683594 -16.148438 C 20.164062 -22.871094 18.480469 -29.871094 18.015625 -37.058594 C 17.828125 -40.511719 17.828125 -44.058594 18.109375 -47.605469 C 18.296875 -50.5 19.789062 -53.953125 18.761719 -56.753906 C 17.921875 -58.808594 15.960938 -60.394531 13.722656 -60.675781 C 8.121094 -61.515625 5.226562 -55.820312 4.199219 -51.152344 C 1.398438 -39.113281 1.867188 -26.042969 6.441406 -14.46875 C 7 -13.066406 8.308594 -12.601562 9.429688 -12.695312 C 10.453125 -10.546875 11.761719 -8.496094 13.347656 -6.628906 C 18.015625 -1.214844 26.695312 2.242188 33.136719 -1.867188 C 34.722656 -2.613281 36.40625 -4.105469 37.246094 -5.039062 C 37.429688 -5.226562 37.617188 -5.414062 37.898438 -5.601562 C 41.445312 -8.867188 43.59375 -13.441406 44.992188 -18.015625 Z M 17.734375 -50.871094 C 16.335938 -42.660156 16.429688 -34.257812 17.921875 -26.042969 C 17.828125 -26.136719 17.734375 -26.136719 17.640625 -26.136719 C 17.363281 -27.257812 17.082031 -28.46875 16.894531 -29.683594 C 15.683594 -35.84375 15.683594 -42.285156 16.429688 -48.632812 C 16.800781 -49.378906 16.988281 -50.21875 17.175781 -51.058594 C 17.269531 -50.871094 17.550781 -50.78125 17.734375 -50.871094 Z M 17.734375 -50.871094 "/></g></g></g><g fill="#ffffff" fill-opacity="1"><g transform="translate(185.072231, 191.814026)"><g><path d="M 53.207031 -35.5625 C 53.488281 -37.617188 52.925781 -39.296875 51.433594 -40.417969 C 50.21875 -41.351562 48.914062 -42.378906 47.605469 -43.3125 C 47.417969 -44.058594 47.046875 -44.804688 46.300781 -45.367188 C 37.152344 -51.527344 27.910156 -57.875 17.640625 -61.140625 C 17.550781 -61.140625 17.457031 -61.234375 17.363281 -61.234375 C 16.707031 -61.515625 16.054688 -61.699219 15.402344 -61.980469 C 15.214844 -62.167969 14.933594 -62.355469 14.5625 -62.355469 C 11.480469 -62.914062 5.878906 -64.128906 4.105469 -60.675781 C 3.082031 -58.527344 4.105469 -55.914062 5.878906 -54.421875 C 5.320312 -53.578125 4.667969 -52.925781 3.921875 -52.367188 C 4.667969 -49.191406 5.320312 -45.925781 5.972656 -42.753906 C 5.414062 -42.753906 4.855469 -42.753906 4.292969 -42.660156 C 1.492188 -42.660156 0.375 -37.992188 2.988281 -36.3125 C 3.828125 -35.75 4.855469 -35.191406 5.789062 -34.816406 L 3.640625 -34.539062 C 4.667969 -34.164062 5.695312 -33.789062 6.722656 -33.511719 C 7.09375 -33.417969 7.28125 -33.136719 7.28125 -32.859375 C 7.46875 -32.859375 7.652344 -32.859375 7.839844 -32.859375 L 8.402344 -29.589844 C 9.148438 -25.203125 9.894531 -20.816406 10.640625 -16.429688 L 11.480469 -10.269531 C 11.667969 -8.214844 11.480469 -5.972656 11.949219 -4.015625 C 11.949219 -2.988281 12.882812 -2.332031 13.628906 -2.519531 C 13.722656 -1.960938 13.910156 -1.492188 14.1875 -1.027344 C 15.308594 0.28125 17.175781 0.1875 18.390625 -0.839844 C 19.324219 -1.585938 19.976562 -2.519531 20.535156 -3.640625 C 20.535156 -4.105469 20.535156 -4.667969 20.441406 -5.226562 C 20.722656 -9.800781 20.257812 -14.5625 19.976562 -19.136719 C 19.789062 -23.429688 19.414062 -27.722656 18.949219 -31.925781 C 21.375 -31.832031 23.894531 -31.644531 26.324219 -31.550781 C 26.789062 -30.710938 27.351562 -29.777344 27.910156 -28.9375 L 27.910156 -28.84375 C 28.46875 -27.910156 28.9375 -26.976562 29.402344 -25.949219 C 31.175781 -22.496094 33.699219 -16.335938 34.722656 -13.910156 C 36.589844 -9.613281 38.457031 -5.226562 40.136719 -0.839844 C 40.511719 -0.652344 41.070312 -0.839844 41.351562 -1.121094 C 41.351562 -1.027344 41.445312 -1.027344 41.539062 -1.027344 C 42.378906 -0.652344 43.21875 -0.652344 44.058594 -0.746094 C 45.644531 -0.09375 47.792969 -0.558594 48.074219 -2.613281 C 48.820312 -8.679688 45.550781 -14.5625 43.03125 -19.882812 C 41.070312 -23.894531 38.832031 -27.722656 36.3125 -31.457031 C 40.699219 -31.082031 45.085938 -30.710938 49.472656 -30.429688 C 50.964844 -30.242188 52.738281 -31.832031 52.925781 -33.605469 Z M 15.308594 -49.847656 L 15.027344 -51.339844 C 23.054688 -49.472656 30.523438 -45.460938 37.710938 -40.511719 L 28.65625 -41.632812 C 26.511719 -43.40625 23.429688 -45.925781 20.628906 -44.152344 C 20.164062 -43.777344 19.882812 -43.21875 19.789062 -42.753906 C 19.324219 -42.84375 18.761719 -42.84375 18.296875 -42.9375 C 17.921875 -44.898438 17.457031 -46.859375 16.988281 -48.820312 C 16.894531 -49.660156 15.960938 -49.660156 15.496094 -49.191406 C 15.402344 -49.378906 15.402344 -49.660156 15.308594 -49.847656 Z M 21.9375 -7.839844 C 22.308594 -10.082031 23.054688 -11.015625 22.777344 -14.375 C 22.308594 -19.976562 21.84375 -25.578125 20.910156 -30.992188 L 20.164062 -30.992188 C 21.28125 -23.335938 21.5625 -15.589844 21.9375 -7.839844 Z M 21.9375 -7.839844 "/></g></g></g><g fill="#ffffff" fill-opacity="1"><g transform="translate(231.647902, 191.814026)"><g><path d="M 44.992188 -18.015625 C 47.140625 -25.484375 47.511719 -33.324219 47.140625 -41.070312 L 47.140625 -44.804688 C 47.140625 -47.046875 46.765625 -49.285156 46.578125 -51.527344 C 46.300781 -54.980469 45.925781 -59.460938 41.726562 -59.925781 C 40.699219 -60.019531 39.859375 -58.992188 39.859375 -58.0625 L 39.859375 -57.128906 C 37.523438 -58.433594 34.164062 -56.566406 34.257812 -53.765625 C 34.351562 -45.367188 34.445312 -37.058594 33.882812 -28.75 C 33.699219 -25.578125 33.882812 -19.695312 31.738281 -16.523438 C 30.429688 -15.402344 28.84375 -14.65625 27.070312 -14.28125 C 25.390625 -14.375 23.988281 -15.121094 22.683594 -16.148438 C 20.164062 -22.871094 18.480469 -29.871094 18.015625 -37.058594 C 17.828125 -40.511719 17.828125 -44.058594 18.109375 -47.605469 C 18.296875 -50.5 19.789062 -53.953125 18.761719 -56.753906 C 17.921875 -58.808594 15.960938 -60.394531 13.722656 -60.675781 C 8.121094 -61.515625 5.226562 -55.820312 4.199219 -51.152344 C 1.398438 -39.113281 1.867188 -26.042969 6.441406 -14.46875 C 7 -13.066406 8.308594 -12.601562 9.429688 -12.695312 C 10.453125 -10.546875 11.761719 -8.496094 13.347656 -6.628906 C 18.015625 -1.214844 26.695312 2.242188 33.136719 -1.867188 C 34.722656 -2.613281 36.40625 -4.105469 37.246094 -5.039062 C 37.429688 -5.226562 37.617188 -5.414062 37.898438 -5.601562 C 41.445312 -8.867188 43.59375 -13.441406 44.992188 -18.015625 Z M 17.734375 -50.871094 C 16.335938 -42.660156 16.429688 -34.257812 17.921875 -26.042969 C 17.828125 -26.136719 17.734375 -26.136719 17.640625 -26.136719 C 17.363281 -27.257812 17.082031 -28.46875 16.894531 -29.683594 C 15.683594 -35.84375 15.683594 -42.285156 16.429688 -48.632812 C 16.800781 -49.378906 16.988281 -50.21875 17.175781 -51.058594 C 17.269531 -50.871094 17.550781 -50.78125 17.734375 -50.871094 Z M 17.734375 -50.871094 "/></g></g></g></svg>